<?xml version="1.0" encoding="utf-8"?>
<!-- Generator: Adobe Illustrator 16.0.3, SVG Export Plug-In . SVG Version: 6.00 Build 0)  -->
<!DOCTYPE svg PUBLIC "-//W3C//DTD SVG 1.1//EN" "http://www.w3.org/Graphics/SVG/1.1/DTD/svg11.dtd">
<svg version="1.1" id="Ebene_1" xmlns="http://www.w3.org/2000/svg" xmlns:xlink="http://www.w3.org/1999/xlink" x="0px" y="0px"
	 width="37px" height="37px" viewBox="-2.5 -1.208 37 37" enable-background="new -2.5 -1.208 37 37" xml:space="preserve">
<g id="Layer_1">
</g>
<rect x="-2.5" y="-1.208" fill="#DADADA" width="37" height="37"/>
<g id="fullscreen_x5F_exit_x5F_alt">
	<g>
		<polygon fill="#4E4E50" points="22.336,26.706 28.922,33.292 31.75,30.464 25.164,23.878 27.75,21.292 19.75,21.292 19.75,29.292 
					"/>
		<polygon fill="#4E4E50" points="6.297,10.663 3.75,13.292 11.711,13.249 11.75,5.292 9.125,7.835 2.578,1.292 -0.25,4.12 		"/>
		<polygon fill="#4E4E50" points="-0.25,30.464 2.578,33.292 9.164,26.706 11.75,29.292 11.75,21.292 3.75,21.292 6.336,23.878 		
			"/>
		<polygon fill="#4E4E50" points="27.781,13.292 25.188,10.696 31.75,4.13 28.914,1.292 22.348,7.858 19.75,5.263 19.75,13.292 		
			"/>
	</g>
</g>
<g display="none">
	
		<circle display="inline" fill="none" stroke="#4E4E50" stroke-width="4" stroke-miterlimit="10" cx="15.897" cy="17.457" r="12.875"/>
</g>
<g display="none">
	
		<circle display="inline" fill="none" stroke="#4E4E50" stroke-width="4" stroke-miterlimit="10" cx="15.84" cy="17.438" r="12.875"/>
</g>
<path display="none" fill="none" stroke="#A0A0A0" stroke-width="4" stroke-miterlimit="10" d="M28.318,14.062
	c1.512,5.511-0.805,11.556-5.983,14.546c-6.157,3.555-14.033,1.445-17.587-4.713c-1.916-3.317-2.187-7.133-1.066-10.503"/>
<polygon display="none" fill="#4E4E50" stroke="#4E4E50" stroke-width="2" stroke-miterlimit="10" points="30.817,8.892 
	30.819,17.552 23.318,13.222 "/>
<polygon display="none" fill="#4E4E50" stroke="#4E4E50" stroke-width="2" stroke-miterlimit="10" points="8.405,13.386 
	0.906,17.716 0.906,9.056 "/>
<circle display="none" fill="#4E4E50" cx="15.84" cy="17.438" r="3.766"/>
</svg>
