<?xml version="1.0" encoding="utf-8"?>
<!-- Generator: Adobe Illustrator 16.0.3, SVG Export Plug-In . SVG Version: 6.00 Build 0)  -->
<!DOCTYPE svg PUBLIC "-//W3C//DTD SVG 1.1//EN" "http://www.w3.org/Graphics/SVG/1.1/DTD/svg11.dtd">
<svg version="1.1" id="Ebene_1" xmlns="http://www.w3.org/2000/svg" xmlns:xlink="http://www.w3.org/1999/xlink" x="0px" y="0px"
	 width="37px" height="37px" viewBox="-2.5 -1.208 37 37" enable-background="new -2.5 -1.208 37 37" xml:space="preserve">
<g id="Layer_1">
</g>
<rect x="-2.5" y="-1.208" fill="#DADADA" width="37" height="37"/>
<g id="fullscreen_x5F_exit_x5F_alt" display="none">
	<g display="inline">
		<polygon fill="#4E4E50" points="21.586,25.414 28.172,32 31,29.172 24.414,22.586 27,20 19,20 19,28 		"/>
		<polygon fill="#4E4E50" points="5.547,9.371 3,12 10.961,11.957 11,4 8.375,6.543 1.828,0 -1,2.828 		"/>
		<polygon fill="#4E4E50" points="-1,29.172 1.828,32 8.414,25.414 11,28 11,20 3,20 5.586,22.586 		"/>
		<polygon fill="#4E4E50" points="27.031,12 24.438,9.404 31,2.838 28.164,0 21.598,6.566 19,3.971 19,12 		"/>
	</g>
</g>
<g>
	<circle fill="none" stroke="#4E4E50" stroke-width="4" stroke-miterlimit="10" cx="15.897" cy="17.457" r="12.875"/>
</g>
<g>
	<circle fill="none" stroke="#4E4E50" stroke-width="4" stroke-miterlimit="10" cx="15.84" cy="17.438" r="12.875"/>
</g>
<path fill="none" stroke="#A0A0A0" stroke-width="4" stroke-miterlimit="10" d="M28.318,14.062
	c1.512,5.511-0.805,11.556-5.983,14.546c-6.157,3.555-14.033,1.445-17.587-4.713c-1.916-3.317-2.187-7.133-1.066-10.503"/>
<polygon fill="#4E4E50" stroke="#4E4E50" stroke-width="2" stroke-miterlimit="10" points="30.817,8.892 30.819,17.552 
	23.318,13.222 "/>
<polygon fill="#4E4E50" stroke="#4E4E50" stroke-width="2" stroke-miterlimit="10" points="8.405,13.386 0.906,17.716 0.906,9.056 
	"/>
<circle display="none" fill="#4E4E50" cx="15.84" cy="17.438" r="3.766"/>
</svg>
