
<svg xmlns="http://www.w3.org/2000/svg" version="1.1" xmlns:xlink="http://www.w3.org/1999/xlink" preserveAspectRatio="none" x="0px" y="0px" width="554px" height="554px" viewBox="0 0 554 554">
<defs>
<g id="logo_0_Layer0_0_FILL">
<path fill="#EAE7D9" stroke="none" d="
M 82.7 354.75
Q 85.1 356.45 87.55 358.1
L 119.8 253.75 53.95 285.5 82.7 354.75 Z"/>

<path fill="#F0E7D6" stroke="none" d="
M 31 232.8
L 53.95 285.5 75.55 184.3 31 232.8 Z"/>

<path fill="#E5DDD1" stroke="none" d="
M 53.95 285.5
L 11.65 263.1
Q 25.8 301.55 57.15 332.9 69.35 345.1 82.7 354.75
L 53.95 285.5 Z"/>

<path fill="#EEE2D6" stroke="none" d="
M 11.65 263.1
L 53.95 285.5 31 232.8 11.65 263.1
M 75.55 184.3
L 2.75 160.7 31 232.8 75.55 184.3 Z"/>

<path fill="#EEE8D7" stroke="none" d="
M 83.7 197.1
L 75.55 184.3 53.95 285.5 119.8 253.75 96.9 217.8 96.9 255.45 83.7 255.45 83.7 197.1 Z"/>

<path fill="#F2EDDB" stroke="none" d="
M 83.7 197.1
L 83.7 178.2 75.55 184.3 83.7 197.1
M 128.45 147.2
L 125.15 147.2 96.9 168.35 96.9 187.45 125.3 187.45
Q 134.6 187.45 139.4 185.25 144.2 183 147.05 178.15 149.85 173.35 149.85 166.95 149.85 157.75 144.45 152.5 139.05 147.2 128.45 147.2
M 159.4 138.2
L 151.9 139.35
Q 155.6279296875 142.30859375 158.45 147
L 159.4 138.2
M 143.9 206.8
Q 145.3623046875 208.5349609375 146.7 210.35
L 152.55 201 153.5 192.05
Q 146.6291015625 198.173828125 135.4 200.1 141 203.4 143.9 206.8
M 130.1 210.15
Q 126.2 205 122.45 203.25 118.8 201.4 112.2 201.4
L 96.9 201.4 96.9 217.8 119.8 253.75 138.4 223.75
Q 133.1703125 214.0646484375 130.1 210.15 Z"/>

<path fill="#000000" stroke="none" d="
M 151.9 139.35
Q 150.2681640625 138.09375 148.45 137.15 141.8 133.75 127.95 133.75
L 83.7 133.75 83.7 150.15 83.7 178.2 83.7 197.1 83.7 255.45 96.9 255.45 96.9 217.8 96.9 201.4 112.2 201.4
Q 118.8 201.4 122.45 203.25 126.2 205 130.1 210.15 133.1703125 214.0646484375 138.4 223.75 140.0103515625 226.6869140625 141.8 230.15
L 155.1 255.45 171.7 255.45 154.25 222.35
Q 150.9029296875 215.919140625 146.7 210.35 145.3623046875 208.5349609375 143.9 206.8 141 203.4 135.4 200.1 146.6291015625 198.173828125 153.5 192.05 155.0423828125 190.7419921875 156.35 189.2 163.5 180.65 163.5 166.9 163.5 156.4 159.25 148.45 158.854296875 147.7142578125 158.45 147 155.6279296875 142.30859375 151.9 139.35
M 125.15 147.2
L 128.45 147.2
Q 139.05 147.2 144.45 152.5 149.85 157.75 149.85 166.95 149.85 173.35 147.05 178.15 144.2 183 139.4 185.25 134.6 187.45 125.3 187.45
L 96.9 187.45 96.9 168.35 96.9 148.05 96.9 147.2 102.45 147.2 125.15 147.2
M 180.15 133.75
L 180.4 134.9 203 238.55 206.7 255.45 220.05 255.45 221.1 250.85 239 172.4 239.2 171.5 241.25 162.75
Q 242.75 156.4 244.15 148.45
L 248.65 168.25 264.8 239.55 268.4 255.45 281 255.45 301.25 165.5 305.95 144.85 308.45 133.75 298 133.75 295.2 133.75 292.55 146.75 292.35 147.75 292.1 149.05 290.5 157 279.5 211.95
Q 276.5 226.55 274.6 238.45 273.36640625 228.4841796875 271.5 218.05 269.51015625 206.9650390625 266.8 195.35
L 259.4 163.5 252.55 133.75 244.3 133.75 236.5 133.75 229.65 163.35 217.5 215.95 214.1 233.25 213.1 238.45
Q 212.1193359375 231.920703125 211 225.5 209.961328125 219.4771484375 208.8 213.55
L 205.45 195.9 193.6 133.75 187.6 133.75 180.15 133.75 Z"/>

<path fill="#F4E8DA" stroke="none" d="
M 102.45 147.2
L 96.9 148.05 96.9 168.35 125.15 147.2 102.45 147.2
M 2.75 160.7
L 75.55 184.3 83.7 178.2 83.7 150.15 74.9 151.55 2.75 160.7 Z"/>

<path fill="#F2E9D8" stroke="none" d="
M 96.9 147.2
L 96.9 148.05 102.45 147.2 96.9 147.2
M 180.4 134.9
L 180.15 133.75 187.6 133.75 197.45 132.2 159.15 67.65 127 131.85 67.4 96.8 74.9 151.55 83.7 150.15 83.7 133.75 127.95 133.75
Q 141.8 133.75 148.45 137.15 150.2681640625 138.09375 151.9 139.35
L 159.4 138.2 180.4 134.9
M 275.8 93.2
L 280.8 19.25 248.9 99.45 275.8 93.2 Z"/>

<path fill="#F1E3D5" stroke="none" d="
M 74.9 151.55
L 16.95 114.05
Q 6.8 136.15 2.75 160.7
L 74.9 151.55
M 2.75 160.7
Q 0 177.25 0 194.95 0 231.45 11.65 263.1
L 31 232.8 2.75 160.7 Z"/>

<path fill="#EAEEE0" stroke="none" d="
M 221.1 250.85
L 220.05 255.45 206.7 255.45 203 238.55 191.25 282.9 243.65 307.45 221.1 250.85
M 211 225.5
Q 212.1193359375 231.920703125 213.1 238.45
L 214.1 233.25 211 225.5 Z"/>

<path fill="#ECF0DF" stroke="none" d="
M 271.5 218.05
Q 273.36640625 228.4841796875 274.6 238.45 276.5 226.55 279.5 211.95
L 290.5 157 271.5 218.05
M 327.9 265.85
L 333.45 232.45 301.25 165.5 281 255.45 268.4 255.45 264.8 239.55 243.65 307.45 282.65 255.7 327.9 265.85 Z"/>

<path fill="#EFEFDF" stroke="none" d="
M 159.4 138.2
L 158.45 147
Q 158.854296875 147.7142578125 159.25 148.45 163.5 156.4 163.5 166.9 163.5 180.65 156.35 189.2 155.0423828125 190.7419921875 153.5 192.05
L 152.55 201 191.25 282.9 203 238.55 180.4 134.9 159.4 138.2
M 187.6 133.75
L 193.6 133.75 205.45 195.9 197.45 132.2 187.6 133.75 Z"/>

<path fill="#EFF2E1" stroke="none" d="
M 259.4 163.5
L 266.8 195.35
Q 269.51015625 206.9650390625 271.5 218.05
L 290.5 157 292.1 149.05 259.4 163.5
M 197.45 132.2
L 205.45 195.9 208.8 213.55
Q 209.961328125 219.4771484375 211 225.5
L 214.1 233.25 217.5 215.95 229.65 163.35 197.45 132.2
M 239.1 172.5
L 239 172.4 221.1 250.85 243.65 307.45 264.8 239.55 248.65 168.25 239.1 172.5 Z"/>

<path fill="#EDECDC" stroke="none" d="
M 244.3 133.75
L 252.55 133.75 259.4 163.5 292.1 149.05 292.35 147.75 248.9 99.45 244.3 133.75
M 241.25 162.75
L 239.2 171.5 239.1 172.5 248.65 168.25 244.15 148.45
Q 242.75 156.4 241.25 162.75 Z"/>

<path fill="#F0EFDC" stroke="none" d="
M 292.35 147.75
L 292.55 146.75 275.8 93.2 248.9 99.45 292.35 147.75 Z"/>

<path fill="#EEEBDB" stroke="none" d="
M 292.55 146.75
L 295.2 133.75 298 133.75 325.35 49.9 275.8 93.2 292.55 146.75 Z"/>

<path fill="#F4F1E1" stroke="none" d="
M 229.65 163.35
L 236.5 133.75 244.3 133.75 248.9 99.45 197.45 132.2 229.65 163.35
M 239.2 171.5
L 239 172.4 239.1 172.5 239.2 171.5 Z"/>

<path fill="#E7EFE3" stroke="none" d="
M 390 194.95
Q 390 168.45 383.85 144.5
L 355.75 130.25 305.95 144.85 301.25 165.5 333.45 232.45 388 224.6
Q 390 210.2 390 194.95 Z"/>

<path fill="#E9EADB" stroke="none" d="
M 332.9 57.1
Q 329.15 53.4 325.35 49.9
L 298 133.75 308.45 133.75 305.95 144.85 355.75 130.25 366 100.15
Q 352.95 77.15 332.9 57.1 Z"/>

<path fill="#EAEDDF" stroke="none" d="
M 176.5 352.35
L 191.25 282.9 119.8 253.75 176.5 352.35 Z"/>

<path fill="#E2ECDF" stroke="none" d="
M 262.85 378.5
Q 286.95 369.65 308.3 354.05
L 243.65 307.45 229.9 340.25 262.85 378.5 Z"/>

<path fill="#E5EEE0" stroke="none" d="
M 308.3 354.05
Q 309.05 353.5 309.75 353
L 282.65 255.7 243.65 307.45 308.3 354.05 Z"/>

<path fill="#E6EDE2" stroke="none" d="
M 176.5 352.35
L 229.9 340.25 243.65 307.45 191.25 282.9 176.5 352.35 Z"/>

<path fill="#EDECDB" stroke="none" d="
M 141.8 230.15
Q 140.0103515625 226.6869140625 138.4 223.75
L 119.8 253.75 191.25 282.9 152.55 201 146.7 210.35
Q 150.9029296875 215.919140625 154.25 222.35
L 171.7 255.45 155.1 255.45 141.8 230.15 Z"/>

<path fill="#F4EEDE" stroke="none" d="
M 194.2 30.3
L 197.45 132.2 248.9 99.45 194.2 30.3 Z"/>

<path fill="#F4ECDC" stroke="none" d="
M 197.45 132.2
L 194.2 30.3 159.15 67.65 197.45 132.2 Z"/>

<path fill="#EFE4D6" stroke="none" d="
M 232.9 3.4
L 194.2 30.3 248.9 99.45 248.9 7.1
Q 241.05 4.9 232.9 3.4 Z"/>

<path fill="#EBE4D6" stroke="none" d="
M 280.8 19.25
L 275.8 93.2 325.35 49.9
Q 304.55 31 280.8 19.25 Z"/>

<path fill="#EBE0D2" stroke="none" d="
M 280.8 19.25
Q 265.45 11.65 248.9 7.1
L 248.9 99.45 280.8 19.25 Z"/>

<path fill="#E5EDDF" stroke="none" d="
M 368.35 285.45
Q 383.35 257.2 388 224.6
L 333.45 232.45 368.35 285.45 Z"/>

<path fill="#DDE5DA" stroke="none" d="
M 368.2 285.75
Q 368.3 285.6 368.35 285.45
L 333.45 232.45 327.9 265.85 368.2 285.75 Z"/>

<path fill="#E3E7DA" stroke="none" d="
M 383.85 144.5
Q 377.85 121.1 366 100.15
L 355.75 130.25 383.85 144.5 Z"/>

<path fill="#E7EADD" stroke="none" d="
M 119.8 375.6
L 119.85 375.6 176.5 352.35 119.8 253.75 119.8 375.6 Z"/>

<path fill="#E4E5D9" stroke="none" d="
M 87.55 358.1
Q 102.95 368.55 119.8 375.6
L 119.8 253.75 87.55 358.1 Z"/>

<path fill="#EEE0D2" stroke="none" d="
M 23.7 100.75
Q 20.05 107.3 16.95 114.05
L 74.9 151.55 67.4 96.8 23.7 100.75 Z"/>

<path fill="#E1E9DD" stroke="none" d="
M 309.75 353
Q 311.4 351.75 313.05 350.5
L 327.9 265.85 282.65 255.7 309.75 353 Z"/>

<path fill="#E2E7E4" stroke="none" d="
M 219.45 388.65
L 176.5 352.35 119.85 375.6
Q 154.45 390 195 390 207.5 390 219.45 388.65 Z"/>

<path fill="#E4EDE4" stroke="none" d="
M 176.5 352.35
L 219.45 388.65
Q 242.15 386 262.85 378.5
L 229.9 340.25 176.5 352.35 Z"/>

<path fill="#EBD8CC" stroke="none" d="
M 57.15 57.1
Q 36.8 77.45 23.7 100.75
L 67.4 96.8 82 35.8
Q 69.05 45.2 57.15 57.1 Z"/>

<path fill="#EADFD2" stroke="none" d="
M 138.5 36.5
L 159.15 67.65 194.2 30.3 138.5 36.5 Z"/>

<path fill="#EEE3D3" stroke="none" d="
M 159.15 67.65
L 138.5 36.5 67.4 96.8 127 131.85 159.15 67.65 Z"/>

<path fill="#F2E0D1" stroke="none" d="
M 232.9 3.4
Q 214.65 0 195 0 131.1 0 82 35.8
L 67.4 96.8 138.5 36.5 194.2 30.3 232.9 3.4 Z"/>

<path fill="#DDE9DF" stroke="none" d="
M 368.2 285.75
L 327.9 265.85 313.05 350.5
Q 323.3 342.5 332.9 332.9 354.75 311.05 368.2 285.75 Z"/>
</g>

<path id="logo_0_Layer0_0_1_STROKES" stroke="#000000" stroke-width="23" stroke-linejoin="round" stroke-linecap="round" fill="none" d="
M 325.35 49.9
Q 329.15 53.4 332.9 57.1 352.95 77.15 366 100.15 377.85 121.1 383.85 144.5 390 168.45 390 194.95 390 210.2 388 224.6 383.35 257.2 368.35 285.45 368.3 285.6 368.2 285.75 354.75 311.05 332.9 332.9 323.3 342.5 313.05 350.5
M 309.75 353
Q 309.05 353.5 308.3 354.05 286.95 369.65 262.85 378.5 242.15 386 219.45 388.65 207.5 390 195 390 154.45 390 119.85 375.6
L 119.8 375.6
Q 102.95 368.55 87.55 358.1
M 82.7 354.75
Q 69.35 345.1 57.15 332.9 25.8 301.55 11.65 263.1 0 231.45 0 194.95 0 177.25 2.75 160.7 6.8 136.15 16.95 114.05 20.05 107.3 23.7 100.75 36.8 77.45 57.15 57.1 69.05 45.2 82 35.8 131.1 0 195 0 214.65 0 232.9 3.4 241.05 4.9 248.9 7.1 265.45 11.65 280.8 19.25 304.55 31 325.35 49.9
M 313.05 350.5
Q 311.4 351.75 309.75 353
M 87.55 358.1
Q 85.1 356.45 82.7 354.75"/>

<path id="logo_0_Layer0_0_2_STROKES" stroke="#000000" stroke-width="1" stroke-linejoin="round" stroke-linecap="round" fill="none" d="
M 368.35 285.45
L 370.8 289.15
M 313.05 350.5
L 311.5 359.25 309.75 353
M 87.55 358.1
L 86.05 362.85 82.7 354.75"/>
</defs>

<g transform="matrix( 1, 0, 0, 1, 82,82) ">
<g transform="matrix( 1, 0, 0, 1, 0,0) ">
<use xlink:href="#logo_0_Layer0_0_FILL"/>

<use xlink:href="#logo_0_Layer0_0_1_STROKES"/>

<use xlink:href="#logo_0_Layer0_0_2_STROKES"/>
</g>
</g>
</svg>
