
<svg xmlns="http://www.w3.org/2000/svg" version="1.1" xmlns:xlink="http://www.w3.org/1999/xlink" preserveAspectRatio="none" x="0px" y="0px" width="150px" height="150px" viewBox="0 0 150 150">
<defs>
<path id="Layer0_0_1_STROKES" stroke="#000000" stroke-width="20" stroke-linejoin="round" stroke-linecap="round" fill="none" d="
M 110.75 61.55
Q 110.75 81.95 96.35 96.35 94.4 98.3 92.35 100 79.2 110.75 61.55 110.75 41.15 110.75 26.75 96.35 24.1 93.7 21.95 90.9 12.35 78.2 12.35 61.55 12.35 44.9 21.95 32.25 24.1 29.4 26.75 26.75 41.15 12.35 61.55 12.35 81.95 12.35 96.35 26.75 110.75 41.15 110.75 61.55 Z
M 100.75 98.7
L 139.7 137.65"/>
</defs>

<g transform="matrix( 1, 0, 0, 1, 0,0) ">
<use xlink:href="#Layer0_0_1_STROKES"/>
</g>
</svg>
