
<svg xmlns="http://www.w3.org/2000/svg" version="1.1" xmlns:xlink="http://www.w3.org/1999/xlink" preserveAspectRatio="none" x="0px" y="0px" width="302px" height="243px" viewBox="0 0 302 243">
<defs>
<g id="Layer0_0_FILL">
<path fill="#000000" stroke="none" d="
M 158.35 199.45
Q 152.05 204.3 149.6 212.05 147.7 220.25 150.6 227.55 153.5 234.8 160.8 239.15 168.05 243.05 175.8 242.05 183.55 241.1 189.4 235.3 195.2 229.5 196.2 221.75 197.15 215.9 195.7 211.55 193.25 203.3 186 198.95 179.7 194.6 171.95 194.6 164.15 194.6 158.35 199.45
M 77.85 196.55
Q 70.55 192.65 62.35 194.1 54.55 196.05 49.25 202.35 43.4 209.15 42.95 216.9 42.45 224.65 46.8 231.9 51.65 238.7 59.4 241.1 67.65 244 75.9 241.1 85.1 237.7 89.95 227.05 93.85 217.35 89 207.7 85.6 200.4 77.85 196.55
M 286.4 25.05
Q 291.25 28.9 297.05 25.05 302.4 21.15 300.95 14.85 300.45 11 296.1 7.6 287.35 0.35 274.75 1.3 264.55 1.8 253.4 9.55
L 244.2 16.8 233.55 27.45 223.85 41.05 221.9 42.95 10.9 42.95
Q 1.2 42.95 1.2 52.65
L 34.7 146.15
Q 43.4 170.4 60.4 175.2 197.65 185.9 206.35 156.8
L 232.55 64.3 232.55 63.3 234 60.9 234 60.4 236.45 57
Q 237.4 55.55 238.85 53.65
L 249.05 39.6
Q 253.9 34.25 260.2 29.4 265.55 24.55 270.85 22.15 278.15 19.7 283 23.1
L 286.4 25.05 Z"/>
</g>
</defs>

<g transform="matrix( 1, 0, 0, 1, 0,0) ">
<use xlink:href="#Layer0_0_FILL"/>
</g>
</svg>
